<mxfile host="app.diagrams.net" modified="2023-12-08T10:46:03.603Z" agent="Mozilla/5.0 (Windows NT 10.0; Win64; x64) AppleWebKit/537.36 (KHTML, like Gecko) Chrome/120.0.0.0 Safari/537.36" etag="s2VRispBmoJfkX9qq9ur" version="22.1.7" type="device">
  <diagram name="Pagina-1" id="zklYbT65FYoGmUEhbWzT">
    <mxGraphModel dx="1050" dy="-2973" grid="1" gridSize="10" guides="1" tooltips="1" connect="1" arrows="1" fold="1" page="1" pageScale="1" pageWidth="827" pageHeight="1169" math="0" shadow="0">
      <root>
        <mxCell id="0" />
        <mxCell id="1" parent="0" />
        <mxCell id="gG4qA7yCQe9BDquvV_Gb-1" style="edgeStyle=orthogonalEdgeStyle;rounded=0;orthogonalLoop=1;jettySize=auto;html=1;exitX=0.5;exitY=1;exitDx=0;exitDy=0;entryX=0.5;entryY=0;entryDx=0;entryDy=0;endArrow=none;endFill=0;" edge="1" parent="1" source="gG4qA7yCQe9BDquvV_Gb-2" target="gG4qA7yCQe9BDquvV_Gb-7">
          <mxGeometry relative="1" as="geometry" />
        </mxCell>
        <mxCell id="gG4qA7yCQe9BDquvV_Gb-2" value="Client" style="whiteSpace=wrap;html=1;aspect=fixed;" vertex="1" parent="1">
          <mxGeometry x="293" y="3970" width="42" height="42" as="geometry" />
        </mxCell>
        <mxCell id="gG4qA7yCQe9BDquvV_Gb-3" style="edgeStyle=orthogonalEdgeStyle;rounded=0;orthogonalLoop=1;jettySize=auto;html=1;exitX=0.5;exitY=1;exitDx=0;exitDy=0;entryX=0.5;entryY=0;entryDx=0;entryDy=0;endArrow=none;endFill=0;" edge="1" parent="1" source="gG4qA7yCQe9BDquvV_Gb-4" target="gG4qA7yCQe9BDquvV_Gb-7">
          <mxGeometry relative="1" as="geometry" />
        </mxCell>
        <mxCell id="gG4qA7yCQe9BDquvV_Gb-4" value="Client" style="whiteSpace=wrap;html=1;aspect=fixed;" vertex="1" parent="1">
          <mxGeometry x="437" y="3970" width="42" height="42" as="geometry" />
        </mxCell>
        <mxCell id="gG4qA7yCQe9BDquvV_Gb-5" style="edgeStyle=orthogonalEdgeStyle;rounded=0;orthogonalLoop=1;jettySize=auto;html=1;exitX=0.5;exitY=1;exitDx=0;exitDy=0;entryX=0.5;entryY=0;entryDx=0;entryDy=0;endArrow=none;endFill=0;" edge="1" parent="1" source="gG4qA7yCQe9BDquvV_Gb-7" target="gG4qA7yCQe9BDquvV_Gb-8">
          <mxGeometry relative="1" as="geometry" />
        </mxCell>
        <mxCell id="gG4qA7yCQe9BDquvV_Gb-6" style="edgeStyle=orthogonalEdgeStyle;rounded=0;orthogonalLoop=1;jettySize=auto;html=1;exitX=0.5;exitY=1;exitDx=0;exitDy=0;entryX=0.5;entryY=0;entryDx=0;entryDy=0;endArrow=none;endFill=0;" edge="1" parent="1" source="gG4qA7yCQe9BDquvV_Gb-7" target="gG4qA7yCQe9BDquvV_Gb-9">
          <mxGeometry relative="1" as="geometry" />
        </mxCell>
        <mxCell id="gG4qA7yCQe9BDquvV_Gb-7" value="Api Gateway" style="rounded=1;whiteSpace=wrap;html=1;" vertex="1" parent="1">
          <mxGeometry x="335" y="4056" width="102" height="32" as="geometry" />
        </mxCell>
        <mxCell id="gG4qA7yCQe9BDquvV_Gb-8" value="Service" style="rounded=0;whiteSpace=wrap;html=1;" vertex="1" parent="1">
          <mxGeometry x="200" y="4132" width="89" height="36" as="geometry" />
        </mxCell>
        <mxCell id="gG4qA7yCQe9BDquvV_Gb-9" value="Service" style="rounded=0;whiteSpace=wrap;html=1;" vertex="1" parent="1">
          <mxGeometry x="483" y="4132" width="89" height="36" as="geometry" />
        </mxCell>
        <mxCell id="gG4qA7yCQe9BDquvV_Gb-10" value="" style="shape=cylinder3;whiteSpace=wrap;html=1;boundedLbl=1;backgroundOutline=1;size=15;" vertex="1" parent="1">
          <mxGeometry x="214.5" y="4209" width="60" height="50" as="geometry" />
        </mxCell>
        <mxCell id="gG4qA7yCQe9BDquvV_Gb-11" value="" style="shape=cylinder3;whiteSpace=wrap;html=1;boundedLbl=1;backgroundOutline=1;size=15;" vertex="1" parent="1">
          <mxGeometry x="497.5" y="4209" width="60" height="50" as="geometry" />
        </mxCell>
        <mxCell id="gG4qA7yCQe9BDquvV_Gb-12" value="" style="endArrow=none;html=1;rounded=0;exitX=0.5;exitY=0;exitDx=0;exitDy=0;exitPerimeter=0;entryX=0.5;entryY=1;entryDx=0;entryDy=0;" edge="1" parent="1" source="gG4qA7yCQe9BDquvV_Gb-10" target="gG4qA7yCQe9BDquvV_Gb-8">
          <mxGeometry width="50" height="50" relative="1" as="geometry">
            <mxPoint x="200" y="4218" as="sourcePoint" />
            <mxPoint x="250" y="4168" as="targetPoint" />
          </mxGeometry>
        </mxCell>
        <mxCell id="gG4qA7yCQe9BDquvV_Gb-13" value="" style="endArrow=none;html=1;rounded=0;exitX=0.5;exitY=0;exitDx=0;exitDy=0;exitPerimeter=0;entryX=0.5;entryY=1;entryDx=0;entryDy=0;" edge="1" parent="1">
          <mxGeometry width="50" height="50" relative="1" as="geometry">
            <mxPoint x="527" y="4209" as="sourcePoint" />
            <mxPoint x="527" y="4168" as="targetPoint" />
          </mxGeometry>
        </mxCell>
        <mxCell id="gG4qA7yCQe9BDquvV_Gb-14" value="" style="endArrow=none;dashed=1;html=1;dashPattern=1 3;strokeWidth=2;rounded=0;" edge="1" parent="1">
          <mxGeometry width="50" height="50" relative="1" as="geometry">
            <mxPoint x="373.25" y="4149.81" as="sourcePoint" />
            <mxPoint x="398.75" y="4150.18" as="targetPoint" />
          </mxGeometry>
        </mxCell>
        <mxCell id="gG4qA7yCQe9BDquvV_Gb-15" value="" style="endArrow=none;dashed=1;html=1;dashPattern=1 3;strokeWidth=2;rounded=0;" edge="1" parent="1">
          <mxGeometry width="50" height="50" relative="1" as="geometry">
            <mxPoint x="373.25" y="3990.7800000000007" as="sourcePoint" />
            <mxPoint x="398.75" y="3991.1500000000005" as="targetPoint" />
          </mxGeometry>
        </mxCell>
      </root>
    </mxGraphModel>
  </diagram>
</mxfile>
